<?xml version="1.0" encoding="UTF-8"?>
<svg xmlns="http://www.w3.org/2000/svg" viewBox="0 0 1200 900" width="1200" height="900" role="img" aria-label="Our Fabrication Workshop - Decora placeholder image">
  <title>Our Fabrication Workshop - Decora placeholder</title>
  <defs>
    <linearGradient id="bg" x1="0" y1="0" x2="0" y2="1">
      <stop offset="0" stop-color="#fbfaf7"/>
      <stop offset="1" stop-color="#efe9dc"/>
    </linearGradient>
    <linearGradient id="glassGrad" x1="0" y1="0" x2="1" y2="1">
      <stop offset="0" stop-color="rgba(203,222,229,0.85)"/>
      <stop offset="1" stop-color="rgba(233,241,244,0.85)"/>
    </linearGradient>
    <pattern id="grid" width="60" height="60" patternUnits="userSpaceOnUse">
      <path d="M60 0H0V60" fill="none" stroke="rgba(22,23,27,0.05)" stroke-width="1"/>
    </pattern>
  </defs>
  <rect width="1200" height="900" fill="url(#bg)"/>
  <rect width="1200" height="900" fill="url(#grid)"/>
  <rect x="250" y="180" width="280" height="200" fill="rgba(22,23,27,0.08)" stroke="rgba(22,23,27,0.38)" stroke-width="4"/><circle cx="282" cy="214" r="3.5" fill="#ad8b52" opacity="0.8"/><circle cx="324" cy="214" r="3.5" fill="#ad8b52" opacity="0.8"/><circle cx="366" cy="214" r="3.5" fill="#ad8b52" opacity="0.8"/><circle cx="408" cy="214" r="3.5" fill="#ad8b52" opacity="0.8"/><circle cx="450" cy="214" r="3.5" fill="#ad8b52" opacity="0.8"/><circle cx="492" cy="214" r="3.5" fill="#ad8b52" opacity="0.8"/><circle cx="282" cy="256" r="3.5" fill="#ad8b52" opacity="0.8"/><circle cx="324" cy="256" r="3.5" fill="#ad8b52" opacity="0.8"/><circle cx="366" cy="256" r="3.5" fill="#ad8b52" opacity="0.8"/><circle cx="408" cy="256" r="3.5" fill="#ad8b52" opacity="0.8"/><circle cx="450" cy="256" r="3.5" fill="#ad8b52" opacity="0.8"/><circle cx="492" cy="256" r="3.5" fill="#ad8b52" opacity="0.8"/><circle cx="282" cy="298" r="3.5" fill="#ad8b52" opacity="0.8"/><circle cx="324" cy="298" r="3.5" fill="#ad8b52" opacity="0.8"/><circle cx="366" cy="298" r="3.5" fill="#ad8b52" opacity="0.8"/><circle cx="408" cy="298" r="3.5" fill="#ad8b52" opacity="0.8"/><circle cx="450" cy="298" r="3.5" fill="#ad8b52" opacity="0.8"/><circle cx="492" cy="298" r="3.5" fill="#ad8b52" opacity="0.8"/><circle cx="282" cy="340" r="3.5" fill="#ad8b52" opacity="0.8"/><circle cx="324" cy="340" r="3.5" fill="#ad8b52" opacity="0.8"/><circle cx="366" cy="340" r="3.5" fill="#ad8b52" opacity="0.8"/><circle cx="408" cy="340" r="3.5" fill="#ad8b52" opacity="0.8"/><circle cx="450" cy="340" r="3.5" fill="#ad8b52" opacity="0.8"/><circle cx="492" cy="340" r="3.5" fill="#ad8b52" opacity="0.8"/><line x1="770" y1="120" x2="770" y2="240" stroke="rgba(22,23,27,0.38)" stroke-width="4"/><polygon points="730,240 810,240 796,280 744,280" fill="#23242a"/><circle cx="770" cy="296" r="12" fill="#ad8b52" opacity="0.9"/><circle cx="770" cy="310" r="34" fill="#ad8b52" opacity="0.12"/><rect x="430" y="340" width="330" height="200" fill="url(#glassGrad)" stroke="#23242a" stroke-width="10"/><polygon points="760,340 650,340 496,540 430,540" fill="rgba(255,255,255,0.18)"/><line x1="595" y1="340" x2="595" y2="540" stroke="#23242a" stroke-width="8"/><line x1="430" y1="440" x2="760" y2="440" stroke="#23242a" stroke-width="6"/><rect x="292" y="532" width="140" height="8" rx="4" fill="#ad8b52" opacity="0.85"/><rect x="292" y="518" width="140" height="8" rx="4" fill="#23242a" opacity="0.7"/><rect x="292" y="504" width="140" height="8" rx="4" fill="#ad8b52" opacity="0.85"/><rect x="292" y="490" width="140" height="8" rx="4" fill="#23242a" opacity="0.7"/><rect x="220" y="540" width="760" height="34" rx="6" fill="#23242a"/><rect x="272" y="574" width="24" height="106" fill="#23242a"/><rect x="904" y="574" width="24" height="106" fill="#23242a"/><rect x="180" y="684" width="840" height="10" rx="5" fill="rgba(22,23,27,0.08)"/>
  <g font-family="'Sora','Inter',system-ui,sans-serif">
    <rect x="70" y="806" width="46" height="7" rx="3.5" fill="#ad8b52"/>
    <text x="70" y="858" font-size="30" font-weight="600" fill="#1d1e23">Our Fabrication Workshop</text>
    <text x="1130" y="858" font-size="21" fill="rgba(29,30,35,0.55)" text-anchor="end">Decora - placeholder 48 / 48</text>
  </g>
</svg>
