<?xml version="1.0" encoding="UTF-8"?>
<svg xmlns="http://www.w3.org/2000/svg" viewBox="0 0 1200 900" width="1200" height="900" role="img" aria-label="Aluminum Sliding Window - View 2 - Decora placeholder image">
  <title>Aluminum Sliding Window - View 2 - Decora placeholder</title>
  <defs>
    <linearGradient id="bg" x1="0" y1="0" x2="0" y2="1">
      <stop offset="0" stop-color="#fbfaf7"/>
      <stop offset="1" stop-color="#efe9dc"/>
    </linearGradient>
    <linearGradient id="glassGrad" x1="0" y1="0" x2="1" y2="1">
      <stop offset="0" stop-color="rgba(203,222,229,0.85)"/>
      <stop offset="1" stop-color="rgba(233,241,244,0.85)"/>
    </linearGradient>
    <pattern id="grid" width="60" height="60" patternUnits="userSpaceOnUse">
      <path d="M60 0H0V60" fill="none" stroke="rgba(22,23,27,0.05)" stroke-width="1"/>
    </pattern>
  </defs>
  <rect width="1200" height="900" fill="url(#bg)"/>
  <rect width="1200" height="900" fill="url(#grid)"/>
  <ellipse cx="600" cy="752" rx="460" ry="16" fill="rgba(22,23,27,0.08)"/><rect x="180" y="150" width="280" height="560" rx="0" fill="url(#glassGrad)"/><rect x="460" y="150" width="280" height="560" rx="0" fill="url(#glassGrad)"/><rect x="740" y="150" width="280" height="560" rx="0" fill="url(#glassGrad)"/><polygon points="1020,150 712,150 348,710 180,710" fill="rgba(255,255,255,0.26)"/><line x1="460" y1="150" x2="460" y2="710" stroke="#23242a" stroke-width="10"/><line x1="740" y1="150" x2="740" y2="710" stroke="#23242a" stroke-width="10"/><rect x="180" y="150" width="840" height="560" fill="none" stroke="#23242a" stroke-width="16"/><rect x="189" y="159" width="262" height="542" fill="none" stroke="rgba(22,23,27,0.38)" stroke-width="3"/><rect x="469" y="159" width="262" height="542" fill="none" stroke="rgba(22,23,27,0.38)" stroke-width="3"/><rect x="749" y="159" width="262" height="542" fill="none" stroke="rgba(22,23,27,0.38)" stroke-width="3"/><path d="M 304 413 l 16 17 l -16 17" fill="none" stroke="#ad8b52" stroke-width="6" stroke-linecap="round" stroke-linejoin="round"/><path d="M 326 413 l 16 17 l -16 17" fill="none" stroke="#ad8b52" stroke-width="6" stroke-linecap="round" stroke-linejoin="round"/><path d="M 616 413 l -16 17 l 16 17" fill="none" stroke="#ad8b52" stroke-width="6" stroke-linecap="round" stroke-linejoin="round"/><path d="M 594 413 l -16 17 l 16 17" fill="none" stroke="#ad8b52" stroke-width="6" stroke-linecap="round" stroke-linejoin="round"/><path d="M 864 413 l 16 17 l -16 17" fill="none" stroke="#ad8b52" stroke-width="6" stroke-linecap="round" stroke-linejoin="round"/><path d="M 886 413 l 16 17 l -16 17" fill="none" stroke="#ad8b52" stroke-width="6" stroke-linecap="round" stroke-linejoin="round"/><rect x="134" y="720" width="932" height="24" fill="#23242a"/><rect x="118" y="752" width="964" height="12" rx="6" fill="rgba(22,23,27,0.08)"/>
  <g font-family="'Sora','Inter',system-ui,sans-serif">
    <rect x="70" y="806" width="46" height="7" rx="3.5" fill="#ad8b52"/>
    <text x="70" y="858" font-size="30" font-weight="600" fill="#1d1e23">Aluminum Sliding Window - View 2</text>
    <text x="1130" y="858" font-size="21" fill="rgba(29,30,35,0.55)" text-anchor="end">Decora - placeholder 02 / 48</text>
  </g>
</svg>
