<?xml version="1.0" encoding="UTF-8"?>
<svg xmlns="http://www.w3.org/2000/svg" viewBox="0 0 1200 900" width="1200" height="900" role="img" aria-label="Aluminum Profiles - Karigor Decore placeholder image">
  <title>Aluminum Profiles - Karigor Decore placeholder</title>
  <defs>
    <linearGradient id="bg" x1="0" y1="0" x2="0" y2="1">
      <stop offset="0" stop-color="#fbfaf7"/>
      <stop offset="1" stop-color="#efe9dc"/>
    </linearGradient>
    <linearGradient id="glassGrad" x1="0" y1="0" x2="1" y2="1">
      <stop offset="0" stop-color="rgba(203,222,229,0.85)"/>
      <stop offset="1" stop-color="rgba(233,241,244,0.85)"/>
    </linearGradient>
    <pattern id="grid" width="60" height="60" patternUnits="userSpaceOnUse">
      <path d="M60 0H0V60" fill="none" stroke="rgba(22,23,27,0.05)" stroke-width="1"/>
    </pattern>
  </defs>
  <rect width="1200" height="900" fill="url(#bg)"/>
  <rect width="1200" height="900" fill="url(#grid)"/>
  <ellipse cx="600" cy="752" rx="460" ry="16" fill="rgba(22,23,27,0.08)"/><g transform="rotate(-4 340 300)"><rect x="180" y="210" width="320" height="180" rx="10" fill="rgba(22,23,27,0.08)" stroke="#23242a" stroke-width="7"/><rect x="202" y="232" width="276" height="136" rx="6" fill="none" stroke="rgba(22,23,27,0.38)" stroke-width="4"/><line x1="340" y1="220" x2="340" y2="380" stroke="rgba(22,23,27,0.38)" stroke-width="3"/><line x1="190" y1="300" x2="490" y2="300" stroke="rgba(22,23,27,0.38)" stroke-width="3"/></g><g transform="rotate(3 690 245)"><rect x="560" y="170" width="260" height="150" rx="10" fill="rgba(22,23,27,0.08)" stroke="#23242a" stroke-width="7"/><rect x="582" y="192" width="216" height="106" rx="6" fill="none" stroke="rgba(22,23,27,0.38)" stroke-width="4"/><line x1="690" y1="180" x2="690" y2="310" stroke="rgba(22,23,27,0.38)" stroke-width="3"/><line x1="570" y1="245" x2="810" y2="245" stroke="rgba(22,23,27,0.38)" stroke-width="3"/></g><g transform="rotate(-6 990 305)"><rect x="880" y="240" width="220" height="130" rx="10" fill="rgba(22,23,27,0.08)" stroke="#23242a" stroke-width="7"/><rect x="902" y="262" width="176" height="86" rx="6" fill="none" stroke="rgba(22,23,27,0.38)" stroke-width="4"/><line x1="990" y1="250" x2="990" y2="360" stroke="rgba(22,23,27,0.38)" stroke-width="3"/><line x1="890" y1="305" x2="1090" y2="305" stroke="rgba(22,23,27,0.38)" stroke-width="3"/></g><polygon points="230,620 950,580 1030,660 320,706" fill="url(#glassGrad)" stroke="#23242a" stroke-width="6" stroke-linejoin="round"/><line x1="248" y1="637.2" x2="966" y2="596" stroke="rgba(22,23,27,0.38)" stroke-width="3"/><line x1="266" y1="654.4" x2="982" y2="612" stroke="rgba(22,23,27,0.38)" stroke-width="3"/><line x1="284" y1="671.6" x2="998" y2="628" stroke="rgba(22,23,27,0.38)" stroke-width="3"/><line x1="302" y1="688.8" x2="1014" y2="644" stroke="rgba(22,23,27,0.38)" stroke-width="3"/><line x1="230" y1="620" x2="320" y2="706" stroke="#ad8b52" stroke-width="6"/>
  <g font-family="'Sora','Inter',system-ui,sans-serif">
    <rect x="70" y="806" width="46" height="7" rx="3.5" fill="#ad8b52"/>
    <text x="70" y="858" font-size="30" font-weight="600" fill="#1d1e23">Aluminum Profiles</text>
    <text x="1130" y="858" font-size="21" fill="rgba(29,30,35,0.55)" text-anchor="end">Karigor Decore - placeholder 11 / 48</text>
  </g>
</svg>
