<?xml version="1.0" encoding="UTF-8"?>
<svg xmlns="http://www.w3.org/2000/svg" viewBox="0 0 1200 900" width="1200" height="900" role="img" aria-label="Luxury Home Windows - Decora placeholder image">
  <title>Luxury Home Windows - Decora placeholder</title>
  <defs>
    <linearGradient id="bg" x1="0" y1="0" x2="0" y2="1">
      <stop offset="0" stop-color="#fbfaf7"/>
      <stop offset="1" stop-color="#efe9dc"/>
    </linearGradient>
    <linearGradient id="glassGrad" x1="0" y1="0" x2="1" y2="1">
      <stop offset="0" stop-color="rgba(203,222,229,0.85)"/>
      <stop offset="1" stop-color="rgba(233,241,244,0.85)"/>
    </linearGradient>
    <pattern id="grid" width="60" height="60" patternUnits="userSpaceOnUse">
      <path d="M60 0H0V60" fill="none" stroke="rgba(22,23,27,0.05)" stroke-width="1"/>
    </pattern>
  </defs>
  <rect width="1200" height="900" fill="url(#bg)"/>
  <rect width="1200" height="900" fill="url(#grid)"/>
  <circle cx="980" cy="200" r="46" fill="none" stroke="#ad8b52" stroke-width="6"/><rect x="280" y="280" width="128" height="400" rx="0" fill="url(#glassGrad)"/><polygon points="408,280 337.6,280 305.6,680 280,680" fill="rgba(255,255,255,0.1)"/><rect x="408" y="280" width="128" height="400" rx="0" fill="url(#glassGrad)"/><polygon points="536,280 465.6,280 433.6,680 408,680" fill="rgba(255,255,255,0.1)"/><rect x="536" y="280" width="128" height="400" rx="0" fill="url(#glassGrad)"/><polygon points="664,280 593.6,280 561.6,680 536,680" fill="rgba(255,255,255,0.1)"/><rect x="664" y="280" width="128" height="400" rx="0" fill="url(#glassGrad)"/><polygon points="792,280 721.6,280 689.6,680 664,680" fill="rgba(255,255,255,0.1)"/><rect x="792" y="280" width="128" height="400" rx="0" fill="url(#glassGrad)"/><polygon points="920,280 849.6,280 817.6,680 792,680" fill="rgba(255,255,255,0.1)"/><line x1="408" y1="280" x2="408" y2="680" stroke="rgba(22,23,27,0.38)" stroke-width="4"/><line x1="536" y1="280" x2="536" y2="680" stroke="rgba(22,23,27,0.38)" stroke-width="4"/><line x1="664" y1="280" x2="664" y2="680" stroke="rgba(22,23,27,0.38)" stroke-width="4"/><line x1="792" y1="280" x2="792" y2="680" stroke="rgba(22,23,27,0.38)" stroke-width="4"/><rect x="260" y="468" width="680" height="24" fill="#23242a"/><rect x="250" y="246" width="700" height="34" fill="#23242a"/><rect x="240" y="706" width="720" height="22" rx="6" fill="rgba(22,23,27,0.08)"/>
  <g font-family="'Sora','Inter',system-ui,sans-serif">
    <rect x="70" y="806" width="46" height="7" rx="3.5" fill="#ad8b52"/>
    <text x="70" y="858" font-size="30" font-weight="600" fill="#1d1e23">Luxury Home Windows</text>
    <text x="1130" y="858" font-size="21" fill="rgba(29,30,35,0.55)" text-anchor="end">Decora - placeholder 39 / 48</text>
  </g>
</svg>
