<?xml version="1.0" encoding="UTF-8"?>
<svg xmlns="http://www.w3.org/2000/svg" viewBox="0 0 1200 900" width="1200" height="900" role="img" aria-label="Apartment Windows - Karigor Decore placeholder image">
  <title>Apartment Windows - Karigor Decore placeholder</title>
  <defs>
    <linearGradient id="bg" x1="0" y1="0" x2="0" y2="1">
      <stop offset="0" stop-color="#fbfaf7"/>
      <stop offset="1" stop-color="#efe9dc"/>
    </linearGradient>
    <linearGradient id="glassGrad" x1="0" y1="0" x2="1" y2="1">
      <stop offset="0" stop-color="rgba(203,222,229,0.85)"/>
      <stop offset="1" stop-color="rgba(233,241,244,0.85)"/>
    </linearGradient>
    <pattern id="grid" width="60" height="60" patternUnits="userSpaceOnUse">
      <path d="M60 0H0V60" fill="none" stroke="rgba(22,23,27,0.05)" stroke-width="1"/>
    </pattern>
  </defs>
  <rect width="1200" height="900" fill="url(#bg)"/>
  <rect width="1200" height="900" fill="url(#grid)"/>
  <rect x="230" y="470" width="180" height="220" fill="rgba(22,23,27,0.08)" stroke="rgba(22,23,27,0.38)" stroke-width="4"/><rect x="790" y="520" width="180" height="170" fill="rgba(22,23,27,0.08)" stroke="rgba(22,23,27,0.38)" stroke-width="4"/><rect x="252" y="496" width="60" height="40" fill="url(#glassGrad)" stroke="rgba(22,23,27,0.38)" stroke-width="2"/><rect x="812" y="546" width="60" height="30" fill="url(#glassGrad)" stroke="rgba(22,23,27,0.38)" stroke-width="2"/><rect x="336" y="496" width="60" height="40" fill="url(#glassGrad)" stroke="rgba(22,23,27,0.38)" stroke-width="2"/><rect x="896" y="546" width="60" height="30" fill="url(#glassGrad)" stroke="rgba(22,23,27,0.38)" stroke-width="2"/><rect x="252" y="558" width="60" height="40" fill="url(#glassGrad)" stroke="rgba(22,23,27,0.38)" stroke-width="2"/><rect x="812" y="592" width="60" height="30" fill="url(#glassGrad)" stroke="rgba(22,23,27,0.38)" stroke-width="2"/><rect x="336" y="558" width="60" height="40" fill="url(#glassGrad)" stroke="rgba(22,23,27,0.38)" stroke-width="2"/><rect x="896" y="592" width="60" height="30" fill="url(#glassGrad)" stroke="rgba(22,23,27,0.38)" stroke-width="2"/><rect x="252" y="620" width="60" height="40" fill="url(#glassGrad)" stroke="rgba(22,23,27,0.38)" stroke-width="2"/><rect x="812" y="638" width="60" height="30" fill="url(#glassGrad)" stroke="rgba(22,23,27,0.38)" stroke-width="2"/><rect x="336" y="620" width="60" height="40" fill="url(#glassGrad)" stroke="rgba(22,23,27,0.38)" stroke-width="2"/><rect x="896" y="638" width="60" height="30" fill="url(#glassGrad)" stroke="rgba(22,23,27,0.38)" stroke-width="2"/><rect x="430" y="120" width="340" height="570" fill="rgba(22,23,27,0.08)" stroke="#23242a" stroke-width="9"/><rect x="412" y="100" width="376" height="22" fill="#23242a"/><rect x="456.5" y="160" width="78" height="40" fill="url(#glassGrad)" stroke="rgba(22,23,27,0.38)" stroke-width="2"/><line x1="495.5" y1="160" x2="495.5" y2="200" stroke="rgba(22,23,27,0.38)" stroke-width="2"/><rect x="561" y="160" width="78" height="40" fill="url(#glassGrad)" stroke="rgba(22,23,27,0.38)" stroke-width="2"/><line x1="600" y1="160" x2="600" y2="200" stroke="rgba(22,23,27,0.38)" stroke-width="2"/><rect x="665.5" y="160" width="78" height="40" fill="url(#glassGrad)" stroke="rgba(22,23,27,0.38)" stroke-width="2"/><line x1="704.5" y1="160" x2="704.5" y2="200" stroke="rgba(22,23,27,0.38)" stroke-width="2"/><rect x="456.5" y="216" width="78" height="40" fill="url(#glassGrad)" stroke="rgba(22,23,27,0.38)" stroke-width="2"/><line x1="495.5" y1="216" x2="495.5" y2="256" stroke="rgba(22,23,27,0.38)" stroke-width="2"/><rect x="561" y="216" width="78" height="40" fill="url(#glassGrad)" stroke="rgba(22,23,27,0.38)" stroke-width="2"/><line x1="600" y1="216" x2="600" y2="256" stroke="rgba(22,23,27,0.38)" stroke-width="2"/><rect x="665.5" y="216" width="78" height="40" fill="url(#glassGrad)" stroke="rgba(22,23,27,0.38)" stroke-width="2"/><line x1="704.5" y1="216" x2="704.5" y2="256" stroke="rgba(22,23,27,0.38)" stroke-width="2"/><rect x="456.5" y="272" width="78" height="40" fill="url(#glassGrad)" stroke="rgba(22,23,27,0.38)" stroke-width="2"/><line x1="495.5" y1="272" x2="495.5" y2="312" stroke="rgba(22,23,27,0.38)" stroke-width="2"/><rect x="561" y="272" width="78" height="40" fill="url(#glassGrad)" stroke="rgba(22,23,27,0.38)" stroke-width="2"/><line x1="600" y1="272" x2="600" y2="312" stroke="rgba(22,23,27,0.38)" stroke-width="2"/><rect x="665.5" y="272" width="78" height="40" fill="url(#glassGrad)" stroke="rgba(22,23,27,0.38)" stroke-width="2"/><line x1="704.5" y1="272" x2="704.5" y2="312" stroke="rgba(22,23,27,0.38)" stroke-width="2"/><rect x="456.5" y="328" width="78" height="40" fill="url(#glassGrad)" stroke="rgba(22,23,27,0.38)" stroke-width="2"/><line x1="495.5" y1="328" x2="495.5" y2="368" stroke="rgba(22,23,27,0.38)" stroke-width="2"/><rect x="561" y="328" width="78" height="40" fill="url(#glassGrad)" stroke="rgba(22,23,27,0.38)" stroke-width="2"/><line x1="600" y1="328" x2="600" y2="368" stroke="rgba(22,23,27,0.38)" stroke-width="2"/><rect x="665.5" y="328" width="78" height="40" fill="url(#glassGrad)" stroke="rgba(22,23,27,0.38)" stroke-width="2"/><line x1="704.5" y1="328" x2="704.5" y2="368" stroke="rgba(22,23,27,0.38)" stroke-width="2"/><rect x="456.5" y="384" width="78" height="40" fill="url(#glassGrad)" stroke="rgba(22,23,27,0.38)" stroke-width="2"/><line x1="495.5" y1="384" x2="495.5" y2="424" stroke="rgba(22,23,27,0.38)" stroke-width="2"/><rect x="561" y="384" width="78" height="40" fill="url(#glassGrad)" stroke="rgba(22,23,27,0.38)" stroke-width="2"/><line x1="600" y1="384" x2="600" y2="424" stroke="rgba(22,23,27,0.38)" stroke-width="2"/><rect x="665.5" y="384" width="78" height="40" fill="url(#glassGrad)" stroke="rgba(22,23,27,0.38)" stroke-width="2"/><line x1="704.5" y1="384" x2="704.5" y2="424" stroke="rgba(22,23,27,0.38)" stroke-width="2"/><rect x="456.5" y="440" width="78" height="40" fill="url(#glassGrad)" stroke="rgba(22,23,27,0.38)" stroke-width="2"/><line x1="495.5" y1="440" x2="495.5" y2="480" stroke="rgba(22,23,27,0.38)" stroke-width="2"/><rect x="561" y="440" width="78" height="40" fill="url(#glassGrad)" stroke="rgba(22,23,27,0.38)" stroke-width="2"/><line x1="600" y1="440" x2="600" y2="480" stroke="rgba(22,23,27,0.38)" stroke-width="2"/><rect x="665.5" y="440" width="78" height="40" fill="url(#glassGrad)" stroke="rgba(22,23,27,0.38)" stroke-width="2"/><line x1="704.5" y1="440" x2="704.5" y2="480" stroke="rgba(22,23,27,0.38)" stroke-width="2"/><rect x="456.5" y="496" width="78" height="40" fill="url(#glassGrad)" stroke="rgba(22,23,27,0.38)" stroke-width="2"/><line x1="495.5" y1="496" x2="495.5" y2="536" stroke="rgba(22,23,27,0.38)" stroke-width="2"/><rect x="561" y="496" width="78" height="40" fill="url(#glassGrad)" stroke="rgba(22,23,27,0.38)" stroke-width="2"/><line x1="600" y1="496" x2="600" y2="536" stroke="rgba(22,23,27,0.38)" stroke-width="2"/><rect x="665.5" y="496" width="78" height="40" fill="url(#glassGrad)" stroke="rgba(22,23,27,0.38)" stroke-width="2"/><line x1="704.5" y1="496" x2="704.5" y2="536" stroke="rgba(22,23,27,0.38)" stroke-width="2"/><rect x="456.5" y="552" width="78" height="40" fill="url(#glassGrad)" stroke="rgba(22,23,27,0.38)" stroke-width="2"/><line x1="495.5" y1="552" x2="495.5" y2="592" stroke="rgba(22,23,27,0.38)" stroke-width="2"/><rect x="561" y="552" width="78" height="40" fill="url(#glassGrad)" stroke="rgba(22,23,27,0.38)" stroke-width="2"/><line x1="600" y1="552" x2="600" y2="592" stroke="rgba(22,23,27,0.38)" stroke-width="2"/><rect x="665.5" y="552" width="78" height="40" fill="url(#glassGrad)" stroke="rgba(22,23,27,0.38)" stroke-width="2"/><line x1="704.5" y1="552" x2="704.5" y2="592" stroke="rgba(22,23,27,0.38)" stroke-width="2"/><rect x="456.5" y="608" width="78" height="40" fill="url(#glassGrad)" stroke="rgba(22,23,27,0.38)" stroke-width="2"/><line x1="495.5" y1="608" x2="495.5" y2="648" stroke="rgba(22,23,27,0.38)" stroke-width="2"/><rect x="561" y="608" width="78" height="40" fill="url(#glassGrad)" stroke="rgba(22,23,27,0.38)" stroke-width="2"/><line x1="600" y1="608" x2="600" y2="648" stroke="rgba(22,23,27,0.38)" stroke-width="2"/><rect x="665.5" y="608" width="78" height="40" fill="url(#glassGrad)" stroke="rgba(22,23,27,0.38)" stroke-width="2"/><line x1="704.5" y1="608" x2="704.5" y2="648" stroke="rgba(22,23,27,0.38)" stroke-width="2"/><rect x="430" y="120" width="46" height="570" fill="rgba(22,23,27,0.12)"/><rect x="180" y="694" width="840" height="12" rx="6" fill="rgba(22,23,27,0.08)"/>
  <g font-family="'Sora','Inter',system-ui,sans-serif">
    <rect x="70" y="806" width="46" height="7" rx="3.5" fill="#ad8b52"/>
    <text x="70" y="858" font-size="30" font-weight="600" fill="#1d1e23">Apartment Windows</text>
    <text x="1130" y="858" font-size="21" fill="rgba(29,30,35,0.55)" text-anchor="end">Karigor Decore - placeholder 43 / 48</text>
  </g>
</svg>
