<?xml version="1.0" encoding="UTF-8"?>
<svg xmlns="http://www.w3.org/2000/svg" viewBox="0 0 1200 900" width="1200" height="900" role="img" aria-label="Custom Window Design - Decora placeholder image">
  <title>Custom Window Design - Decora placeholder</title>
  <defs>
    <linearGradient id="bg" x1="0" y1="0" x2="0" y2="1">
      <stop offset="0" stop-color="#202127"/>
      <stop offset="1" stop-color="#141519"/>
    </linearGradient>
    <linearGradient id="glassGrad" x1="0" y1="0" x2="1" y2="1">
      <stop offset="0" stop-color="rgba(244,240,232,0.10)"/>
      <stop offset="1" stop-color="rgba(244,240,232,0.04)"/>
    </linearGradient>
    <pattern id="grid" width="60" height="60" patternUnits="userSpaceOnUse">
      <path d="M60 0H0V60" fill="none" stroke="rgba(244,240,232,0.05)" stroke-width="1"/>
    </pattern>
  </defs>
  <rect width="1200" height="900" fill="url(#bg)"/>
  <rect width="1200" height="900" fill="url(#grid)"/>
  <circle cx="600" cy="400" r="252" fill="none" stroke="#ad8b52" stroke-width="7" opacity="0.95"/><circle cx="600" cy="400" r="212" fill="none" stroke="rgba(244,240,232,0.42)" stroke-width="3" stroke-dasharray="2 10" stroke-linecap="round"/><circle cx="600" cy="268" r="15" fill="none" stroke="#ad8b52" stroke-width="8"/><line x1="600" y1="283" x2="522" y2="560" stroke="#e9e3d6" stroke-width="11" stroke-linecap="round"/><line x1="600" y1="283" x2="678" y2="560" stroke="#e9e3d6" stroke-width="11" stroke-linecap="round"/><path d="M522 566 A 170 170 0 0 0 678 566" fill="none" stroke="#ad8b52" stroke-width="5" stroke-dasharray="10 9"/><polyline points="700,470 760,470 760,530" fill="none" stroke="rgba(244,240,232,0.42)" stroke-width="5" stroke-linejoin="round"/>
  <g font-family="'Sora','Inter',system-ui,sans-serif">
    <rect x="70" y="806" width="46" height="7" rx="3.5" fill="#ad8b52"/>
    <text x="70" y="858" font-size="30" font-weight="600" fill="#f4f0e8">Custom Window Design</text>
    <text x="1130" y="858" font-size="21" fill="rgba(244,240,232,0.60)" text-anchor="end">Decora - placeholder 24 / 48</text>
  </g>
</svg>
