<?xml version="1.0" encoding="UTF-8"?>
<svg xmlns="http://www.w3.org/2000/svg" viewBox="0 0 1200 900" width="1200" height="900" role="img" aria-label="Interior Decoration - Karigor Decore placeholder image">
  <title>Interior Decoration - Karigor Decore placeholder</title>
  <defs>
    <linearGradient id="bg" x1="0" y1="0" x2="0" y2="1">
      <stop offset="0" stop-color="#202127"/>
      <stop offset="1" stop-color="#141519"/>
    </linearGradient>
    <linearGradient id="glassGrad" x1="0" y1="0" x2="1" y2="1">
      <stop offset="0" stop-color="rgba(244,240,232,0.10)"/>
      <stop offset="1" stop-color="rgba(244,240,232,0.04)"/>
    </linearGradient>
    <pattern id="grid" width="60" height="60" patternUnits="userSpaceOnUse">
      <path d="M60 0H0V60" fill="none" stroke="rgba(244,240,232,0.05)" stroke-width="1"/>
    </pattern>
  </defs>
  <rect width="1200" height="900" fill="url(#bg)"/>
  <rect width="1200" height="900" fill="url(#grid)"/>
  <circle cx="600" cy="400" r="252" fill="none" stroke="#ad8b52" stroke-width="7" opacity="0.95"/><circle cx="600" cy="400" r="212" fill="none" stroke="rgba(244,240,232,0.42)" stroke-width="3" stroke-dasharray="2 10" stroke-linecap="round"/><rect x="548" y="240" width="104" height="120" fill="rgba(244,240,232,0.10)" stroke="#ad8b52" stroke-width="5"/><polyline points="566,336 600,282 626,318 644,300" fill="none" stroke="rgba(244,240,232,0.42)" stroke-width="4"/><rect x="492" y="392" width="216" height="56" rx="16" fill="url(#glassGrad)" stroke="#e9e3d6" stroke-width="8"/><line x1="600" y1="392" x2="600" y2="448" stroke="rgba(244,240,232,0.42)" stroke-width="3"/><rect x="472" y="448" width="256" height="56" rx="14" fill="url(#glassGrad)" stroke="#e9e3d6" stroke-width="8"/><rect x="452" y="414" width="44" height="92" rx="12" fill="#e9e3d6"/><rect x="704" y="414" width="44" height="92" rx="12" fill="#e9e3d6"/><rect x="486" y="540" width="14" height="30" fill="#e9e3d6"/><rect x="700" y="540" width="14" height="30" fill="#e9e3d6"/>
  <g font-family="'Sora','Inter',system-ui,sans-serif">
    <rect x="70" y="806" width="46" height="7" rx="3.5" fill="#ad8b52"/>
    <text x="70" y="858" font-size="30" font-weight="600" fill="#f4f0e8">Interior Decoration</text>
    <text x="1130" y="858" font-size="21" fill="rgba(244,240,232,0.60)" text-anchor="end">Karigor Decore - placeholder 29 / 48</text>
  </g>
</svg>
